<svg xmlns="http://www.w3.org/2000/svg" viewBox="0 0 800.01373 562.56547"><title>Cover_reschedule</title><g id="Layer_2" data-name="Layer 2"><g id="Layer_6" data-name="Layer 6"><rect width="800.01373" height="562.56547" fill="none" opacity="0.58"/><path d="M429.25149,512.11893l215.37319-124.998a24.31,24.31,0,0,0-.03938-42.07363L428.80722,220.35369a36.55435,36.55435,0,0,0-36.62223.02477l-215.041,124.656a24.31,24.31,0,0,0-.01106,42.05708L392.55341,512.11881A36.55435,36.55435,0,0,0,429.25149,512.11893Z" fill="#d6e1ee"/><path d="M429.25149,509.02717l215.37319-124.998a24.31,24.31,0,0,0-.03938-42.07363L428.80722,217.26193a36.55435,36.55435,0,0,0-36.62223.02477l-215.041,124.656a24.31,24.31,0,0,0-.01106,42.05708L392.55341,509.02706A36.55435,36.55435,0,0,0,429.25149,509.02717Z" fill="#ebf4ff"/><path d="M490.35531,182.09605a1.427,1.427,0,0,1-1.38281-1.12207l-2.123-9.80078a1.41574,1.41574,0,0,1,.91895-1.64258c6.35156-2.167,29.2793-11.05273,34.36914-14.63379,1.94824-1.37207,1.6084-2.7168.78906-5.96777a69.78035,69.78035,0,0,1-2.27051-15.60645c-.69238-16.14551,1.93066-23.64941,3.96387-27.88965.02637-.04492,2.998-5.29785,6.56738-8.13477.165-.12988.39063-.28613.65723-.45508a20.73371,20.73371,0,0,1,9.38086-3.09863c1.6123-.13477,3.08594-.19922,4.50293-.19922q.96973,0,1.957.043a.5659.5659,0,0,1,.42969.1748c.37012.42383.249,1.75684.02832,4.17676-.19824,2.17969-.46973,5.166-.59473,9.39746l-.04395,1.54785c-.34375,12.20313-1.25684,44.61719-7.71777,51.76367-6.60449,7.30664-33.25488,17.90527-39.80371,19.26074-4.11035.84961-7.57617,1.707-9.27734,2.1416A1.42637,1.42637,0,0,1,490.35531,182.09605Z" fill="#6172da"/><path d="M545.73129,93.41954v.25c.65674,0,1.3125.0144,1.94873.043a.42973.42973,0,0,1,.34082.13257c.335.38354.208,1.77637-.002,4.08374-.19873,2.1814-.47021,5.16919-.59521,9.40479l-.04395,1.53711c-.34277,12.19263-1.25439,44.58057-7.68555,51.69409-6.59082,7.29053-33.19775,17.86938-39.73633,19.22217-4.10937.85034-7.57959,1.70776-9.28223,2.14307a1.28807,1.28807,0,0,1-1.58105-.98242L486.971,171.1461a1.29,1.29,0,0,1,.83838-1.49707c6.355-2.168,29.29883-11.06128,34.39941-14.65063,2.019-1.42065,1.67334-2.79053.83887-6.10034a69.69719,69.69719,0,0,1-2.26611-15.58154c-.33105-7.72-.28174-19.00391,3.94434-27.81519.02979-.05249,2.9873-5.28247,6.53906-8.105a7.77741,7.77741,0,0,1,.64746-.448,20.61672,20.61672,0,0,1,9.32275-3.07983c1.60938-.13379,3.08008-.199,4.49609-.199v-.25m0,0c-1.52979,0-3.03027.07617-4.5166.2a20.79657,20.79657,0,0,0-9.43652,3.11792,8.0666,8.0666,0,0,0-.66895.46338c-3.63086,2.8855-6.60107,8.17822-6.60107,8.17822-2.23877,4.667-4.63965,12.481-3.97656,27.94824.71777,16.7312,5.12207,18.94165,1.5332,21.4668-5.06885,3.56714-27.936,12.43506-34.33594,14.61841a1.5365,1.5365,0,0,0-1.002,1.78662l2.12354,9.80151a1.53787,1.53787,0,0,0,1.88721,1.17163c1.86279-.47632,5.24951-1.30835,9.271-2.14038,6.15039-1.27246,33.08447-11.79224,39.87109-19.29932s7.47607-42.57544,7.79395-53.3916c.31836-10.81616,1.62842-13.80615.01758-13.87817q-.9895-.04431-1.96-.04321Z" fill="#6172da"/><path d="M572.65064,374.30324s-9.46343,27.13018-8.24158,31.3532,3.66556,8.05013,11.81126,3.4312,9.50331-6.4665,9.91059-9.36982-.95033-12.75834,1.62914-18.433,3.66556-11.2174,3.25828-14.12072S572.65064,374.30324,572.65064,374.30324Z" fill="#0e1531"/><path d="M591.01846,367.7312c-.04654-.33086-.34961-.412-.83287-.31336.06563,3.075-1.04049,8.001-3.33186,13.04216-2.57973,5.67465-1.22185,15.52963-1.62914,18.433s-1.76517,4.7509-9.91086,9.36976c-5.40169,3.06307-8.28848,2.40309-9.98166.38518,1.513,2.99,4.37632,4.69928,10.8881,1.00678,8.14569-4.61886,9.50358-6.46647,9.91086-9.36976s-.9506-12.75837,1.62914-18.433C590.33952,376.1772,591.42575,370.63449,591.01846,367.7312Z" fill="#060a16"/><path d="M526.98518,359.08247s-5.49834,8.9942-11.60761,11.33609-9.673,3.8692-10.69122,6.00745-.91639,4.07285,2.851,4.68377,9.31664.71275,13.13493-.91639,12.32036-8.14569,13.54222-8.6548a7.8946,7.8946,0,0,1,2.64735-.50911v1.731s10.21606.30546,12.25248-.84851,2.98675-1.61051,2.98675-1.61051.47517-6.12789-1.4255-8.911-2.99975-4.12133-2.99975-4.12133Z" fill="#0e1531"/><path d="M552.1012,367.19588s-.9506.4565-2.987,1.61045-12.25235.84858-12.25235.84858a7.8946,7.8946,0,0,0-2.64735.50911c-1.22185.50911-9.72392,7.02566-13.54222,8.6548s-9.36755,1.52732-13.13493.91639c-2.08574-.33818-3.022-1.09-3.29288-2.04945-.36711,1.60289.28836,2.93681,3.29288,3.424,3.76738.61093,9.31664.71275,13.13493-.91639s12.32036-8.14569,13.54222-8.6548a7.8946,7.8946,0,0,1,2.64735-.50911v1.731s10.21593.30546,12.25235-.84858,2.987-1.61045,2.987-1.61045a27.42262,27.42262,0,0,0,.00955-3.21532C552.10558,367.15063,552.1012,367.19588,552.1012,367.19588Z" fill="#060a16"/><path d="M520.61932,183.73853s-8.85485,63.82874-5.4113,89.40944,9.83873,85.105,12.29841,87.07274,6.39517,4.6734,10.33066,3.93549,9.34679-4.18146,9.83873-6.88711-9.10082-78.70982-8.36292-89.04048,8.86554-40.26946,8.86554-40.26946,1.21916-.31529,3.43287,3.37423-3.32057,41.69161,4.42743,65.67351,12.05244,75.26627,14.26615,78.21788,7.871,8.85485,13.28228,7.379,8.36292-3.93549,8.36292-8.60889-11.92946-75.14328-11.5605-81.41547,2.21371-51.28437,1.84476-57.92551.369-34.68151.369-34.68151Z" fill="#2b3650"/><path d="M539.31289,268.22859c.41039-5.74547,3.10621-17.55235,5.41819-26.90451,1.38371-5.494,3.44716-13.36488,3.44716-13.36488h0a22.19494,22.19494,0,0,0-11.08857,14.21889c-2.05949,8.288-4.71595,19.86259-5.1579,26.0505-.73814,10.33068,8.85462,86.33484,8.36284,89.04052-.40045,2.202-4.05917,4.8923-7.529,6.21551a9.03125,9.03125,0,0,0,5.07132.67158c3.93553-.73791,9.347-4.1815,9.83882-6.88709C548.16782,354.56343,538.57506,278.55927,539.31289,268.22859Z" fill="#232c3f"/><path d="M580.38956,292.57943c.36907-6.27213,2.21381-51.28433,1.84474-57.92545s.36907-34.68152.36907-34.68152l-61.98424-16.23389s-.092.66428-.25164,1.86726l54.85443,14.36663s-.73783,28.04032-.36876,34.68152c.36876,6.64112-1.476,51.65332-1.84505,57.92545-.36876,6.27221,11.56053,76.74207,11.56053,81.41551,0,4.06469-2.23742,6.4527-6.37954,7.9773a7.95157,7.95157,0,0,0,5.39815.63159c5.41119-1.47582,8.36284-3.93553,8.36284-8.60889S580.02049,298.85163,580.38956,292.57943Z" fill="#232c3f"/><path d="M577.58968,222.45445c-8.31641,0-41.14941-12.4209-46.66895-14.835-4.81934-2.10937-12.90137-9.18457-13.59863-9.7998.25879-2.61426,7.76367-78.16406,9.001-81.87891.293-.876.56934-1.97949.88965-3.25781,1.07715-4.29687,2.55273-10.18164,6.293-14.085l.39746-.415a15.72127,15.72127,0,0,1,11.29395-4.8291q.34277,0,.6875.01563a64.619,64.619,0,0,1,22.89746,5.25586c15.41113,6.78125,24.55176,15.165,27.52246,19.0498,1.38281,1.80762-1.7041,16.66309-4.68945,31.03027-2.94043,14.15234-5.98145,28.78711-5.51562,33.9082.95117,10.46094,2.54395,27.96875,1.91113,30.81836-1.20215,5.4082-4.48437,8.43359-9.75293,8.99121A6.38051,6.38051,0,0,1,577.58968,222.45445Z" fill="#7e8de8"/><path d="M545.19857,93.22886v.25q.33984,0,.68066.01489a64.50358,64.50358,0,0,1,22.85352,5.24634c15.38965,6.77173,24.50977,15.136,27.47217,19.0105,1.34766,1.76221-1.73291,16.58984-4.7124,30.9292-2.94238,14.16162-5.98486,28.80518-5.51562,33.96826.94971,10.44775,2.53906,27.93433,1.91162,30.75757-1.189,5.34985-4.43359,8.342-9.644,8.89331a6.29765,6.29765,0,0,1-.6543.03076c-8.30225,0-41.10449-12.41235-46.61963-14.8252-4.70947-2.0603-12.563-8.89673-13.51807-9.7356.356-3.5835,7.76416-78.11182,8.98975-81.78784.29346-.88086.5708-1.9873.89209-3.26807,1.07324-4.2832,2.54346-10.14917,6.26172-14.02856l.39795-.41528a15.59809,15.59809,0,0,1,11.20459-4.79028v-.25m0,0a15.769,15.769,0,0,0-11.38525,4.86743l-.39795.415c-4.87793,5.09009-5.938,13.57324-7.21045,17.39062-1.27246,3.81763-9.01367,81.96973-9.01367,81.96973s8.58936,7.635,13.6792,9.86182c4.94678,2.16431,38.14209,14.84619,46.71973,14.84619a6.5181,6.5181,0,0,0,.68066-.03223c7.31689-.77417,9.22559-6.22461,9.86182-9.08765.63623-2.86328-.95459-20.35986-1.90869-30.85791-.95459-10.49829,12.937-61.39771,10.17969-65.00317-2.75684-3.60547-11.66455-12.08862-27.57031-19.0874A64.56944,64.56944,0,0,0,545.89047,93.244q-.34644-.01538-.69189-.01514Z" fill="#6172da"/><g opacity="0.23"><path d="M596.40381,117.59869c-2.75717-3.60537-11.66461-12.08867-27.57074-19.08737A64.57106,64.57106,0,0,0,545.89033,93.244a15.71506,15.71506,0,0,0-6.84834,1.25463,62.37383,62.37383,0,0,1,12.74013,4.01265c15.90614,6.9987,24.81358,15.482,27.57074,19.08737s-11.1343,54.505-10.17993,65.00306,2.545,27.9948,1.90874,30.85791a11.69681,11.69681,0,0,1-4.15579,6.98053c5.10239,1.43683,9.30261,2.32324,11.34493,2.10718,7.31682-.7741,9.22556-6.2246,9.86181-9.0877s-.95437-20.35986-1.90874-30.85791S599.161,121.20406,596.40381,117.59869Z" fill="#6172da"/></g><polygon points="545.8 191.572 498.478 219.038 498.478 160.792 545.8 133.327 545.8 191.572" fill="#fec6c3"/><polygon points="524.031 204.097 518.888 207.252 518.888 149.007 524.031 145.852 524.031 204.097" fill="#e8a7a6"/><polygon points="451.156 191.572 498.478 219.038 498.478 160.792 451.156 133.327 451.156 191.572" fill="#fdb3ae"/><polygon points="455.263 190.018 471.826 199.508 471.826 174.749 455.263 165.259 455.263 190.018" fill="#fed9d7"/><polygon points="498.498 160.792 545.822 133.327 498.426 105.937 451.176 133.327 498.498 160.792" fill="#fed9d7"/><polygon points="518.888 149.007 524.031 145.852 476.847 118.434 471.826 121.344 518.888 149.007" fill="#fec2be"/><path d="M468.91984,176.67307a.31665.31665,0,0,1-.15782-.04225l-11.41763-6.5414a.31782.31782,0,0,1,.31564-.55174l11.41763,6.5414a.318.318,0,0,1-.15782.594Z" fill="#fd8e87"/><path d="M468.91984,181.05844a.31665.31665,0,0,1-.15782-.04225l-11.41763-6.5414a.31769.31769,0,0,1-.11805-.43369.31392.31392,0,0,1,.43369-.11805l11.41763,6.5414a.318.318,0,0,1-.15782.594Z" fill="#fd8e87"/><path d="M468.91984,185.05237a.31665.31665,0,0,1-.15782-.04225l-11.41763-6.5414a.31769.31769,0,0,1-.11805-.43369.31392.31392,0,0,1,.43369-.11805l11.41763,6.5414a.318.318,0,0,1-.15782.594Z" fill="#fd8e87"/><path d="M541.22276,194.57664s-11.02826,1.06041-14.52761,0a20.77664,20.77664,0,0,0-5.99131-1.06041c-1.0339-.07953-1.90874.43889-1.51108,1.5317s1.82921,1.96765,3.897,3.24014,3.81747,3.02217,2.46545,4.53325-17.0991,10.41852-17.0991,10.41852,4.05607,3.49935,16.781,0,17.89441-7.63495,17.89441-7.63495Z" fill="#fdb3ae"/><path d="M577.47955,102.73756c-.06431-.0341-.12737-.06788-.19168-.1019-.33552-.1784-.65923-.348-.9292-.484-1.25727-.6326-.91119-2.2469-.75212-3.99657s1.07366-8.78814,1.07366-8.78814l-10.074,4.1356-.36441,4.2055c-2.45209-.90785-4.79887-1.66246-7.00212-2.28519a15.92747,15.92747,0,0,0-7.70547,5.80015c-2.70529,3.92729-4.67864,10.95543-1.07366,14.76646,2.46856,2.60976,6.64765,2.75344,9.26253,2.14779,2.82054-.65318,5.10208-2.71756,9.66515-6.84624,2.3126-2.09219,2.96159-2.9765,5.034-4.28285,0,0,1.19948-.75609,5.52117-2.91949C579.94344,104.08865,578.65666,103.36759,577.47955,102.73756Z" fill="#fdb3ae"/><path d="M543.58968,205.97984a1.42453,1.42453,0,0,1-1.37988-1.12109l-2.124-9.80176a1.417,1.417,0,0,1,.9209-1.64258c6.35156-2.167,29.27832-11.05273,34.36719-14.63379,5.5625-3.91406,6.96875-16.3916,5.61621-21.66016-2.69727-10.50391-1.36426-20.46-.64746-25.80859.08594-.64453.16406-1.22754.22656-1.74316a14.84511,14.84511,0,0,1,6.39063-10.67383,7.04535,7.04535,0,0,1,2.833-1.22559l1.03027-.13672a24.72254,24.72254,0,0,1,2.8877-.29395,3.71757,3.71757,0,0,1,1.89355.47168c1.52441.79,5.49414,2.84766,5.18164,13.51074L600.742,132.765c-.34375,12.2041-1.25781,44.62109-7.71777,51.76758-6.60645,7.30762-33.25684,17.90625-39.80469,19.26172-3.87988.80273-7.18652,1.60742-9.27734,2.14063A1.43594,1.43594,0,0,1,543.58968,205.97984Z" fill="#6172da"/><path d="M593.71127,117.3629h0a3.65191,3.65191,0,0,1,1.86475.47314c1.47559.7644,5.396,2.79541,5.08447,13.38159l-.04395,1.53711c-.34277,12.19263-1.25439,44.58057-7.68555,51.69409-6.58984,7.28979-33.19775,17.86938-39.73682,19.22241-4.11475.85132-7.58154,1.70825-9.28223,2.14307a1.28755,1.28755,0,0,1-1.58057-.98242l-2.12354-9.80176a1.29054,1.29054,0,0,1,.83887-1.49731c6.355-2.16821,29.2998-11.06177,34.39893-14.65015,2.56982-1.80835,4.52588-5.56519,5.50781-10.57861a28.779,28.779,0,0,0,.15771-11.21436c-2.69238-10.48437-1.35937-20.42578-.64355-25.76685.08594-.64282.16406-1.22437.22607-1.73853a14.71668,14.71668,0,0,1,6.33545-10.58521,6.89663,6.89663,0,0,1,2.7793-1.20557l1.03174-.13672a24.55477,24.55477,0,0,1,2.87109-.29395m0-.25a37.612,37.612,0,0,0-3.93506.43286,7.18889,7.18889,0,0,0-2.88525,1.24512,15.00664,15.00664,0,0,0-6.44531,10.76343c-.58984,4.87524-2.59912,15.82715.42334,27.59766,1.26807,4.93872.15869,17.49683-5.56738,21.52637-5.06885,3.56689-27.93457,12.43408-34.33545,14.61792a1.53636,1.53636,0,0,0-1.00244,1.78687l2.12354,9.80176a1.53735,1.53735,0,0,0,1.88672,1.17163c1.8623-.47632,5.24951-1.30835,9.271-2.14038,6.15039-1.27271,33.085-11.79248,39.87158-19.29956s7.47607-42.57544,7.79395-53.3916c.31836-10.81616-3.81738-12.884-5.249-13.62622a3.844,3.844,0,0,0-1.9502-.48584Z" fill="#6172da"/><path d="M554.50085,57.564s-5.5612,15.53747-3.76731,29.28966a90.49014,90.49014,0,0,0,2.15243,9.58193,6.0464,6.0464,0,0,0,7.099,4.62532c.83674-.16378,1.78874-.36993,2.87184-.62728a45.24234,45.24234,0,0,0,14.4919-6.27307s17.63436-13.45113,12.77219-21.65877S554.50085,57.564,554.50085,57.564Z" fill="#fdb3ae"/><path d="M576.6802,89.36693l-10.074,4.1356-.36441,4.2055c-2.45209-.90785-4.79887-1.66246-7.00212-2.28519a16.20849,16.20849,0,0,0-7.08911,5.00453c.22523.55539.43027,1.06947.58933,1.51124a6.04623,6.04623,0,0,0,7.63091,3.68194c.809-.26919,1.727-.59508,2.76866-.98854a46.63135,46.63135,0,0,0,12.54069-7.19015C575.94734,95.00856,576.6802,89.36693,576.6802,89.36693Z" fill="#fd8e87"/><path d="M554.50085,57.564s-5.5612,15.53747-3.76731,29.28966a90.49014,90.49014,0,0,0,2.15243,9.58193,6.0464,6.0464,0,0,0,7.099,4.62532c.83674-.16378,1.78874-.36993,2.87184-.62728a45.24234,45.24234,0,0,0,14.4919-6.27307s17.63436-13.45113,12.77219-21.65877S554.50085,57.564,554.50085,57.564Z" fill="#fdb3ae"/><path d="M559.4879,99.82894a90.5236,90.5236,0,0,1-2.15261-9.5819c-1.79379-13.75221,3.76746-29.28966,3.76746-29.28966s14.17914,3.10527,24.8055,7.66741C576.02873,62.27764,554.50077,57.564,554.50077,57.564s-5.56125,15.53746-3.76715,29.28966a90.45773,90.45773,0,0,0,2.1523,9.5819,6.04164,6.04164,0,0,0,7.0279,4.6322A6.06853,6.06853,0,0,1,559.4879,99.82894Z" fill="#fca7a7"/><path d="M579.355,68.9463a2.06968,2.06968,0,0,0-1.52466-3.04884c-5.63173-.79817-15.58642-1.64967-21.317-5.85239-7.64088-5.6037.77125-11.03253.77125-11.03253s16.95855-3.53988,25.6386-.88312,14.79986,11.53248,13.836,19.0265-10.04078,25.0302-14.27748,28.88613-7.70911-1.65169-4.47748-4.53668,6.28523-8.29341,5.26487-10.62508-2.40068-3.08928-4.68294-.74232a16.61232,16.61232,0,0,0-3.23791,4.64453s-2.02541-1.36073-.24705-6.63307A62.31423,62.31423,0,0,1,579.355,68.9463Z" fill="#171425"/><path d="M562.4559,73.08433c-4.56445,0-11.44141-1.99512-15.89941-3.84863-5.126-2.13281-10.72949-5.92187-10.84473-8.32617a1.79863,1.79863,0,0,1,1.16309-1.65625c2.18555-1.166,14.48926-4.88477,14.61328-4.92187.14844.02148,19.53613,1.7041,22.93262,3.78906,3.13184,1.92383,5.82715,7.48438,6.23828,8.3623-1.3457.55859-13.49316,5.59766-15.47559,6.251a8.92967,8.92967,0,0,1-2.72754.35059Z" fill="#6172da"/><path d="M551.47836,54.46422c1.07861.09448,19.5874,1.74268,22.87646,3.7627,2.98535,1.8335,5.58057,7.02588,6.13574,8.19067-1.82666.75806-13.41748,5.56226-15.34619,6.19751a8.80327,8.80327,0,0,1-2.68945.34424c-4.54785,0-11.4043-1.99048-15.8501-3.8396-5.09082-2.11743-10.65527-5.8606-10.76855-8.21606-.03027-.62646.3291-1.13037,1.09766-1.54053,2.10791-1.124,13.71387-4.64746,14.54443-4.89893M551.452,54.211s-12.41357,3.74634-14.63574,4.93164c-4.36963,2.33105,3.84424,7.77539,9.69238,10.20776,4.71143,1.95972,11.48,3.85889,15.94629,3.85889a9.06281,9.06281,0,0,0,2.76758-.35669c2.11768-.69751,15.605-6.30444,15.605-6.30444s-2.88135-6.40918-6.3418-8.53442S551.452,54.211,551.452,54.211Z" fill="#6172da"/><path d="M594.578,75.347a232.282,232.282,0,0,0-20.0957-12.59668c-9.52344-5.19922-21.22949-8.21973-22.82031-8.61621l6.89648-9.5293a9.03628,9.03628,0,0,1,9.4082-3.47656A80.85894,80.85894,0,0,1,580.41,45.08238c5.4248,2.26758,11.52344,7.63965,15.68359,11.74707a8.9622,8.9622,0,0,1,2.00488,9.74023Z" fill="#7e8de8"/><path d="M565.8641,41.00621a9.00652,9.00652,0,0,1,2.07471.24316,81.97131,81.97131,0,0,1,12.42285,3.94824c5.40527,2.25879,11.49072,7.62085,15.644,11.72144a8.83688,8.83688,0,0,1,1.97754,9.60449l-3.46338,8.63062a232.46722,232.46722,0,0,0-19.97754-12.51392c-9.2373-5.042-20.52246-8.03784-22.6709-8.58228l6.78809-9.37964a8.91351,8.91351,0,0,1,7.20459-3.67212m0-.25a9.13208,9.13208,0,0,0-7.40723,3.77563L551.452,54.211s12.67871,3.031,22.9707,8.64868a230.87518,230.87518,0,0,1,20.21143,12.68091l3.58105-8.92407a9.10935,9.10935,0,0,0-2.03369-9.87549c-4.00537-3.95435-10.21338-9.47144-15.72363-11.77417a82.35524,82.35524,0,0,0-12.46143-3.96069,9.23664,9.23664,0,0,0-2.13232-.25Z" fill="#6172da"/><circle cx="568.19512" cy="51.33705" r="3.81747" fill="#ffd665"/><path d="M393.75251,165.172c6.5268,55.149-30.27362,131.33864-82.196,170.1743s-99.30488,25.61106-105.83167-29.538,30.27362-131.33864,82.196-170.1743S387.22571,110.023,393.75251,165.172Z" fill="#c0d4ef"/><circle cx="266.62972" cy="312.14152" r="59.22922" fill="#c0d4ef"/><circle cx="347.6127" cy="175.90526" r="63.88448" fill="#c0d4ef"/><path d="M415.99567,177.95c6.5268,55.149-30.27363,131.33864-82.196,170.1743s-99.30488,25.61106-105.83167-29.538,30.27363-131.33864,82.196-170.1743S409.46887,122.801,415.99567,177.95Z" fill="#ebf4ff"/><path d="M400.40689,189.60974c5.44457,46.00455-25.25384,109.5609-68.56682,141.95707s-82.83877,21.36439-88.28333-24.64016,25.25384-109.5609,68.56682-141.95707S394.96232,143.60518,400.40689,189.60974Z" fill="#fff"/><ellipse cx="322.19064" cy="126.79447" rx="17.15674" ry="7.68295" fill="#ffd665"/><rect x="305.03391" y="117.01671" width="34.31348" height="9.77776" fill="#ffd665"/><ellipse cx="322.19064" cy="117.01671" rx="17.15674" ry="7.68295" fill="#eebc4a"/><ellipse cx="322.19064" cy="113.07724" rx="22.2395" ry="9.95905" fill="#ffd665"/><rect x="299.95114" y="100.40278" width="44.479" height="12.67446" fill="#ffd665"/><ellipse cx="322.19064" cy="100.40278" rx="22.2395" ry="9.95905" fill="#eebc4a"/><path d="M318.29684,189.45506h0c-1.65981,1.162-3.09622.69759-3.2083-1.03729l-.44412-6.87453a6.76584,6.76584,0,0,1,2.80242-5.24527h0c1.65981-1.162,3.09622-.69759,3.2083,1.03729l.44412,6.87453A6.76584,6.76584,0,0,1,318.29684,189.45506Z" fill="#47576e"/><path d="M326.82679,321.48885h0c-1.65981,1.162-3.09622.69759-3.2083-1.03729l-.44412-6.87453a6.76584,6.76584,0,0,1,2.80242-5.24527h0c1.65981-1.162,3.09622-.69759,3.2083,1.03729l.44412,6.87453A6.76584,6.76584,0,0,1,326.82679,321.48885Z" fill="#47576e"/><path d="M379.00319,209.08238h0a6.76584,6.76584,0,0,1,2.80242-5.24527l6.57707-4.60447c1.65981-1.162,3.09622-.69759,3.2083,1.03729h0a6.76584,6.76584,0,0,1-2.80242,5.24527l-6.57707,4.60447C380.55168,211.28168,379.11527,210.81727,379.00319,209.08238Z" fill="#47576e"/><path d="M252.68265,297.51688h0a6.76584,6.76584,0,0,1,2.80242-5.24527l6.57707-4.60447c1.65981-1.162,3.09622-.69759,3.2083,1.03729h0a6.76584,6.76584,0,0,1-2.80242,5.24528l-6.57707,4.60447C254.23113,299.71618,252.79473,299.25176,252.68265,297.51688Z" fill="#47576e"/><path d="M345.41289,177.72659h0c-1.51855.21273-2.19882-1.29873-1.51944-3.37595l2.69207-8.231c.67938-2.07721,2.46115-3.93358,3.9797-4.14631h0c1.51855-.21273,2.19882,1.29873,1.51944,3.37595l-2.69207,8.231C348.7132,175.65749,346.93143,177.51386,345.41289,177.72659Z" fill="#47576e"/><path d="M293.70842,335.8135h0c-1.51855.21273-2.19882-1.29873-1.51944-3.37595l2.69207-8.231c.67938-2.07721,2.46115-3.93358,3.9797-4.14631h0c1.51855-.21273,2.19882,1.29873,1.51944,3.37595l-2.69207,8.231C297.00873,333.7444,295.227,335.60077,293.70842,335.8135Z" fill="#47576e"/><path d="M374.16329,241.60513h0c.67938-2.07721,2.46115-3.93358,3.9797-4.14631l6.01729-.84295c1.51855-.21273,2.19882,1.29873,1.51944,3.37595h0c-.67938,2.07721-2.46115,3.93358-3.9797,4.14631l-6.01729.84295C374.16419,245.19381,373.48391,243.68234,374.16329,241.60513Z" fill="#47576e"/><path d="M258.59389,257.795h0c.67938-2.07721,2.46115-3.93358,3.9797-4.14631l6.01729-.84295c1.51855-.21273,2.19882,1.29873,1.51944,3.37595h0c-.67938,2.07721-2.46115,3.93358-3.9797,4.14631l-6.01729.84295C258.59479,261.38367,257.91451,259.87221,258.59389,257.795Z" fill="#47576e"/><path d="M367.79083,183.17661h0c-.99592-.82511-.723-3.049.60951-4.9671l5.28026-7.60069c1.33255-1.91814,3.22014-2.80421,4.21607-1.97909h0c.99592.82511.723,3.049-.60951,4.9671l-5.28026,7.60069C370.67435,183.11565,368.78675,184.00172,367.79083,183.17661Z" fill="#47576e"/><path d="M266.377,329.15707h0c-.99592-.82511-.723-3.049.60951-4.9671l5.28026-7.60069c1.33255-1.91814,3.22014-2.80421,4.21607-1.97909h0c.99592.82511.723,3.049-.60951,4.9671L270.593,327.178C269.26049,329.09611,267.3729,329.98218,266.377,329.15707Z" fill="#47576e"/><path d="M356.25781,277.16243h0c1.33255-1.91814,3.22014-2.80421,4.21607-1.97909l3.94637,3.26955c.99592.82511.723,3.049-.60951,4.9671h0c-1.33255,1.91814-3.22014,2.80421-4.21607,1.97909l-3.94637-3.26955C354.65238,281.30441,354.92527,279.08056,356.25781,277.16243Z" fill="#47576e"/><path d="M280.46289,214.36682h0c1.33255-1.91814,3.22014-2.80421,4.21607-1.97909l3.94637,3.26955c.99592.82511.723,3.049-.60951,4.9671h0c-1.33255,1.91814-3.22014,2.80421-4.21607,1.97909l-3.94637-3.26955C278.85746,218.50881,279.13035,216.285,280.46289,214.36682Z" fill="#47576e"/><path d="M320.92394,243.34538l39.33224-51.2063c1.13651-1.47961,2.2844-.47147,1.25771,1.1046L325.347,248.76336Z" fill="#ffd665"/><path d="M329.51636,241.9475c.27931,4.32344-2.84744,10.17579-6.98381,13.07157s-7.716,1.73844-7.99529-2.585,2.84744-10.17579,6.98381-13.07157S329.237,237.62405,329.51636,241.9475Z" fill="#ff6c62"/><polygon points="538.021 391.71 405.683 468.48 405.683 375.318 538.056 298.547 538.021 391.71" fill="#fec6c3"/><polygon points="476.805 427.24 468.579 432.286 468.579 339.124 476.805 334.078 476.805 427.24" fill="#e8a7a6"/><polygon points="329.992 424.55 405.683 468.48 405.683 375.318 329.992 331.389 329.992 424.55" fill="#fdb3ae"/><polygon points="336.562 422.065 363.053 437.243 363.053 397.641 336.562 382.463 336.562 422.065" fill="#fed9d7"/><polygon points="405.715 375.318 538.056 298.547 462.247 254.739 330.025 331.389 405.715 375.318" fill="#fed9d7"/><polygon points="468.579 339.124 476.805 334.078 401.336 290.223 393.305 294.878 468.579 339.124" fill="#fec2be"/><path d="M358.405,400.71907a.50648.50648,0,0,1-.25243-.06758l-18.2622-10.4628a.50835.50835,0,0,1,.50485-.8825l18.2622,10.4628a.5087.5087,0,0,1-.25243.95008Z" fill="#fd8e87"/><path d="M358.405,407.73336a.50648.50648,0,0,1-.25243-.06758l-18.2622-10.4628a.50813.50813,0,0,1-.18882-.69368.50211.50211,0,0,1,.69368-.18882l18.2622,10.4628a.5087.5087,0,0,1-.25243.95008Z" fill="#fd8e87"/><path d="M358.405,414.12155a.50648.50648,0,0,1-.25243-.06758l-18.2622-10.4628a.50813.50813,0,0,1-.18882-.69368.50211.50211,0,0,1,.69368-.18882l18.2622,10.4628a.5087.5087,0,0,1-.25243.95008Z" fill="#fd8e87"/><polygon points="468.927 331.43 409.367 365.998 409.367 292.691 468.927 258.123 468.927 331.43" fill="#fec6c3"/><polygon points="441.528 347.195 435.055 351.165 435.055 277.858 441.528 273.887 441.528 347.195" fill="#e8a7a6"/><polygon points="349.808 331.43 409.367 365.998 409.367 292.691 349.808 258.123 349.808 331.43" fill="#fdb3ae"/><polygon points="354.977 329.475 375.823 341.418 375.823 310.256 354.977 298.313 354.977 329.475" fill="#fed9d7"/><polygon points="409.393 292.691 468.955 258.122 409.302 223.65 349.833 258.123 409.393 292.691" fill="#fed9d7"/><polygon points="435.055 277.858 441.528 273.887 382.142 239.378 375.823 243.041 435.055 277.858" fill="#fec2be"/><path d="M372.16511,312.67817a.39854.39854,0,0,1-.19863-.05318l-14.37023-8.233a.4.4,0,1,1,.39726-.69443l14.37023,8.233a.40029.40029,0,0,1-.19863.7476Z" fill="#fd8e87"/><path d="M372.16511,318.1976a.39854.39854,0,0,1-.19863-.05318l-14.37023-8.233a.39984.39984,0,0,1-.14858-.54584.3951.3951,0,0,1,.54584-.14858l14.37023,8.233a.40029.40029,0,0,1-.19863.7476Z" fill="#fd8e87"/><path d="M372.16511,323.22437a.39854.39854,0,0,1-.19863-.05318l-14.37023-8.233a.39984.39984,0,0,1-.14858-.54584.3951.3951,0,0,1,.54584-.14858l14.37023,8.233a.40029.40029,0,0,1-.19863.7476Z" fill="#fd8e87"/><path d="M220.87664,528.32919l63.24839-36.708a7.13908,7.13908,0,0,0-.01157-12.35571l-63.36729-36.61861a10.73487,10.73487,0,0,0-10.75481.00727l-63.15083,36.60757a7.13907,7.13907,0,0,0-.00325,12.35085l63.26228,36.71663A10.73487,10.73487,0,0,0,220.87664,528.32919Z" fill="#d6e1ee"/><path d="M220.87664,524.95242l63.24839-36.708a7.13908,7.13908,0,0,0-.01157-12.35571l-63.36729-36.61861a10.73487,10.73487,0,0,0-10.75481.00727l-63.15083,36.60757a7.13908,7.13908,0,0,0-.00325,12.35085l63.26228,36.71663A10.73487,10.73487,0,0,0,220.87664,524.95242Z" fill="#ebf4ff"/><polygon points="218.047 455.61 254.232 434.609 217.992 413.667 181.864 434.61 218.047 455.61" fill="#96a5b8"/><polygon points="218.038 453.37 250.682 434.423 217.988 415.53 185.394 434.424 218.038 453.37" fill="#d6e1ee"/><polygon points="190.946 437.646 218.038 453.37 245.121 437.651 217.988 421.971 190.946 437.646" fill="#fec6c3"/><path d="M218.0382,454.97555l35.40041-20.43438a.66641.66641,0,0,1,.972.76682l-16.36647,55.12916a1.95743,1.95743,0,0,1-.95942,1.17223L218.0382,501.70981Z" fill="#c1cddc"/><path d="M218.0382,454.97555,182.6378,434.54117a.66641.66641,0,0,0-.972.76682l16.36647,55.12916a1.95743,1.95743,0,0,0,.95942,1.17223l19.04653,10.10043Z" fill="#d6e1ee"/><rect x="216.60455" y="389.17891" width="2.85853" height="48.01085" rx="1.42926" ry="1.42926" fill="#d45951"/><circle cx="219.43399" cy="384.90724" r="40.20145" fill="#29ccbe"/><path d="M226.99026,345.41989a40.19329,40.19329,0,0,1-34.68,69.12843,40.19892,40.19892,0,1,0,34.68-69.12843Z" fill="#11b7a9"/><circle cx="201.08018" cy="389.23806" r="15.52437" fill="#71dfd5"/></g></g></svg>